<?xml version='1.0' encoding='utf-8'?>
<mlt title="Anonymous Submission" version="0.9.0" root="/home/aradulescu" LC_NUMERIC="en_GB.UTF-8">
 <profile width="1440" display_aspect_den="9" colorspace="709" frame_rate_den="1" description="HDV 1440x1080i 25 fps" height="1080" display_aspect_num="16" frame_rate_num="25" progressive="0" sample_aspect_num="4" sample_aspect_den="3"/>
 <producer in="0" out="500" id="black">
  <property name="mlt_type">producer</property>
  <property name="length">15000</property>
  <property name="eof">pause</property>
  <property name="resource">black</property>
  <property name="aspect_ratio">0</property>
  <property name="mlt_service">colour</property>
 </producer>
 <playlist id="black_track">
  <entry in="0" out="1650" producer="black"/>
 </playlist>
 <playlist id="playlist1"/>
 <playlist id="playlist2"/>
 <playlist id="playlist3"/>
 <producer in="0" out="545" id="45_1">
  <property name="mlt_type">producer</property>
  <property name="length">546</property>
  <property name="eof">pause</property>
  <property name="resource">kdenlive/icra17aradulescu/hyq2max_icra_rear_4_01-2016-09-20_09.04.44.mkv</property>
  <property name="meta.media.nb_streams">2</property>
  <property name="meta.media.0.stream.type">video</property>
  <property name="meta.media.0.stream.frame_rate">30</property>
  <property name="meta.media.0.stream.sample_aspect_ratio">1</property>
  <property name="meta.media.0.codec.width">1854</property>
  <property name="meta.media.0.codec.height">810</property>
  <property name="meta.media.0.codec.frame_rate">30</property>
  <property name="meta.media.0.codec.pix_fmt">yuv420p</property>
  <property name="meta.media.0.codec.sample_aspect_ratio">1</property>
  <property name="meta.media.0.codec.colorspace">709</property>
  <property name="meta.media.0.codec.name">h264</property>
  <property name="meta.media.0.codec.long_name">H.264 / AVC / MPEG-4 AVC / MPEG-4 part 10</property>
  <property name="meta.media.0.codec.bit_rate">0</property>
  <property name="meta.media.1.stream.type">audio</property>
  <property name="meta.media.1.codec.sample_fmt">s16</property>
  <property name="meta.media.1.codec.sample_rate">44100</property>
  <property name="meta.media.1.codec.channels">2</property>
  <property name="meta.media.1.codec.name">pcm_s16le</property>
  <property name="meta.media.1.codec.long_name">PCM signed 16-bit little-endian</property>
  <property name="meta.media.1.codec.bit_rate">0</property>
  <property name="meta.attr.ENCODER.markup">Lavf54.20.4</property>
  <property name="seekable">1</property>
  <property name="meta.media.sample_aspect_num">1</property>
  <property name="meta.media.sample_aspect_den">1</property>
  <property name="aspect_ratio">1</property>
  <property name="audio_index">1</property>
  <property name="video_index">0</property>
  <property name="mlt_service">avformat</property>
  <property name="meta.media.frame_rate_num">30</property>
  <property name="meta.media.frame_rate_den">1</property>
  <property name="meta.media.colorspace">709</property>
  <property name="meta.media.width">1854</property>
  <property name="meta.media.height">810</property>
  <property name="meta.media.top_field_first">0</property>
  <property name="meta.media.progressive">1</property>
 </producer>
 <producer in="0" out="54599" id="slowmotion:45:0.01">
  <property name="mlt_type">producer</property>
  <property name="length">54600</property>
  <property name="eof">pause</property>
  <property name="resource">kdenlive/icra17aradulescu/hyq2max_icra_rear_4_01-2016-09-20_09.04.44.mkv?0.01</property>
  <property name="aspect_ratio">1</property>
  <property name="mlt_service">framebuffer</property>
 </producer>
 <producer in="0" out="1186" id="39_1">
  <property name="mlt_type">producer</property>
  <property name="length">1187</property>
  <property name="eof">pause</property>
  <property name="resource">ownCloud/Videos/Videos ICRA /hyq2max_icra_traj1_05-2016-09-09_16.16.54.mkv</property>
  <property name="meta.media.nb_streams">2</property>
  <property name="meta.media.0.stream.type">video</property>
  <property name="meta.media.0.stream.frame_rate">30</property>
  <property name="meta.media.0.stream.sample_aspect_ratio">1</property>
  <property name="meta.media.0.codec.width">1854</property>
  <property name="meta.media.0.codec.height">810</property>
  <property name="meta.media.0.codec.frame_rate">30</property>
  <property name="meta.media.0.codec.pix_fmt">yuv420p</property>
  <property name="meta.media.0.codec.sample_aspect_ratio">1</property>
  <property name="meta.media.0.codec.colorspace">709</property>
  <property name="meta.media.0.codec.name">h264</property>
  <property name="meta.media.0.codec.long_name">H.264 / AVC / MPEG-4 AVC / MPEG-4 part 10</property>
  <property name="meta.media.0.codec.bit_rate">0</property>
  <property name="meta.media.1.stream.type">audio</property>
  <property name="meta.media.1.codec.sample_fmt">s16</property>
  <property name="meta.media.1.codec.sample_rate">44100</property>
  <property name="meta.media.1.codec.channels">2</property>
  <property name="meta.media.1.codec.name">pcm_s16le</property>
  <property name="meta.media.1.codec.long_name">PCM signed 16-bit little-endian</property>
  <property name="meta.media.1.codec.bit_rate">0</property>
  <property name="meta.attr.ENCODER.markup">Lavf54.20.4</property>
  <property name="seekable">1</property>
  <property name="meta.media.sample_aspect_num">1</property>
  <property name="meta.media.sample_aspect_den">1</property>
  <property name="aspect_ratio">1</property>
  <property name="audio_index">1</property>
  <property name="video_index">0</property>
  <property name="mlt_service">avformat</property>
  <property name="meta.media.frame_rate_num">30</property>
  <property name="meta.media.frame_rate_den">1</property>
  <property name="meta.media.colorspace">709</property>
  <property name="meta.media.width">1854</property>
  <property name="meta.media.height">810</property>
  <property name="meta.media.top_field_first">0</property>
  <property name="meta.media.progressive">1</property>
 </producer>
 <producer in="0" out="3955" id="slowmotion:39:0.3">
  <property name="mlt_type">producer</property>
  <property name="length">3956</property>
  <property name="eof">pause</property>
  <property name="resource">ownCloud/Videos/Videos ICRA /hyq2max_icra_traj1_05-2016-09-09_16.16.54.mkv?0.3</property>
  <property name="aspect_ratio">1</property>
  <property name="mlt_service">framebuffer</property>
  <property name="strobe">1</property>
 </producer>
 <producer in="0" out="934" id="40_1">
  <property name="mlt_type">producer</property>
  <property name="length">935</property>
  <property name="eof">pause</property>
  <property name="resource">ownCloud/Videos/Videos ICRA /hyq2max_icra_traj1_06-2016-09-09_17.12.41.mkv</property>
  <property name="meta.media.nb_streams">2</property>
  <property name="meta.media.0.stream.type">video</property>
  <property name="meta.media.0.stream.frame_rate">30</property>
  <property name="meta.media.0.stream.sample_aspect_ratio">1</property>
  <property name="meta.media.0.codec.width">1854</property>
  <property name="meta.media.0.codec.height">810</property>
  <property name="meta.media.0.codec.frame_rate">30</property>
  <property name="meta.media.0.codec.pix_fmt">yuv420p</property>
  <property name="meta.media.0.codec.sample_aspect_ratio">1</property>
  <property name="meta.media.0.codec.colorspace">709</property>
  <property name="meta.media.0.codec.name">h264</property>
  <property name="meta.media.0.codec.long_name">H.264 / AVC / MPEG-4 AVC / MPEG-4 part 10</property>
  <property name="meta.media.0.codec.bit_rate">0</property>
  <property name="meta.media.1.stream.type">audio</property>
  <property name="meta.media.1.codec.sample_fmt">s16</property>
  <property name="meta.media.1.codec.sample_rate">44100</property>
  <property name="meta.media.1.codec.channels">2</property>
  <property name="meta.media.1.codec.name">pcm_s16le</property>
  <property name="meta.media.1.codec.long_name">PCM signed 16-bit little-endian</property>
  <property name="meta.media.1.codec.bit_rate">0</property>
  <property name="meta.attr.ENCODER.markup">Lavf54.20.4</property>
  <property name="seekable">1</property>
  <property name="meta.media.sample_aspect_num">1</property>
  <property name="meta.media.sample_aspect_den">1</property>
  <property name="aspect_ratio">1</property>
  <property name="audio_index">1</property>
  <property name="video_index">0</property>
  <property name="mlt_service">avformat</property>
  <property name="meta.media.frame_rate_num">30</property>
  <property name="meta.media.frame_rate_den">1</property>
  <property name="meta.media.colorspace">709</property>
  <property name="meta.media.width">1854</property>
  <property name="meta.media.height">810</property>
  <property name="meta.media.top_field_first">0</property>
  <property name="meta.media.progressive">1</property>
 </producer>
 <producer in="0" out="18699" id="slowmotion:40:0.05">
  <property name="mlt_type">producer</property>
  <property name="length">18700</property>
  <property name="eof">pause</property>
  <property name="resource">ownCloud/Videos/Videos ICRA /hyq2max_icra_traj1_06-2016-09-09_17.12.41.mkv?0.05</property>
  <property name="aspect_ratio">1</property>
  <property name="mlt_service">framebuffer</property>
  <property name="strobe">1</property>
 </producer>
 <playlist id="playlist4">
  <blank length="241"/>
  <entry in="153" out="305" producer="45_1">
   <filter id="crop">
    <property name="track">0</property>
    <property name="mlt_type">filter</property>
    <property name="mlt_service">crop</property>
    <property name="kdenlive_id">crop</property>
    <property name="tag">crop</property>
    <property name="kdenlive_ix">1</property>
    <property name="top">57</property>
    <property name="left">288</property>
    <property name="bottom">60</property>
    <property name="right">53</property>
    <property name="center">0</property>
    <property name="center_bias">0</property>
    <property name="use_profile">0</property>
    <property name="kdenlive_info"/>
   </filter>
  </entry>
  <entry in="30600" out="30690" producer="slowmotion:45:0.01">
   <filter id="filter0">
    <property name="track">0</property>
    <property name="mlt_type">filter</property>
    <property name="mlt_service">crop</property>
    <property name="kdenlive_id">crop</property>
    <property name="tag">crop</property>
    <property name="kdenlive_ix">1</property>
    <property name="top">57</property>
    <property name="left">288</property>
    <property name="bottom">60</property>
    <property name="right">53</property>
    <property name="center">0</property>
    <property name="center_bias">0</property>
    <property name="use_profile">0</property>
    <property name="kdenlive_info"/>
   </filter>
  </entry>
  <blank length="125"/>
  <entry in="371" out="745" producer="39_1">
   <filter id="filter1">
    <property name="track">0</property>
    <property name="mlt_type">filter</property>
    <property name="mlt_service">crop</property>
    <property name="kdenlive_id">crop</property>
    <property name="tag">crop</property>
    <property name="kdenlive_ix">1</property>
    <property name="top">57</property>
    <property name="left">288</property>
    <property name="bottom">60</property>
    <property name="right">53</property>
    <property name="center">0</property>
    <property name="center_bias">0</property>
    <property name="use_profile">0</property>
    <property name="kdenlive_info"/>
   </filter>
  </entry>
  <entry in="2486" out="2512" producer="slowmotion:39:0.3">
   <filter id="filter2">
    <property name="track">0</property>
    <property name="mlt_type">filter</property>
    <property name="mlt_service">crop</property>
    <property name="kdenlive_id">crop</property>
    <property name="tag">crop</property>
    <property name="kdenlive_ix">1</property>
    <property name="top">57</property>
    <property name="left">288</property>
    <property name="bottom">60</property>
    <property name="right">53</property>
    <property name="center">0</property>
    <property name="center_bias">0</property>
    <property name="use_profile">0</property>
    <property name="kdenlive_info"/>
   </filter>
  </entry>
  <blank length="134"/>
  <entry in="351" out="690" producer="40_1">
   <filter id="filter3">
    <property name="track">0</property>
    <property name="mlt_type">filter</property>
    <property name="mlt_service">crop</property>
    <property name="kdenlive_id">crop</property>
    <property name="tag">crop</property>
    <property name="kdenlive_ix">1</property>
    <property name="top">57</property>
    <property name="left">288</property>
    <property name="bottom">60</property>
    <property name="right">53</property>
    <property name="center">0</property>
    <property name="center_bias">0</property>
    <property name="use_profile">0</property>
    <property name="kdenlive_info"/>
   </filter>
  </entry>
  <entry in="13720" out="13759" producer="slowmotion:40:0.05">
   <filter id="filter4">
    <property name="track">0</property>
    <property name="mlt_type">filter</property>
    <property name="mlt_service">crop</property>
    <property name="kdenlive_id">crop</property>
    <property name="tag">crop</property>
    <property name="kdenlive_ix">1</property>
    <property name="kdenlive_info"/>
    <property name="top">57</property>
    <property name="left">288</property>
    <property name="bottom">60</property>
    <property name="right">53</property>
    <property name="center">0</property>
    <property name="center_bias">0</property>
    <property name="use_profile">0</property>
   </filter>
  </entry>
 </playlist>
 <producer in="0" out="124" id="1">
  <property name="mlt_type">producer</property>
  <property name="length">125</property>
  <property name="eof">pause</property>
  <property name="resource"/>
  <property name="progressive">1</property>
  <property name="mlt_service">kdenlivetitle</property>
  <property name="xmldata">&lt;kdenlivetitle width="1920" duration="100" height="1080" LC_NUMERIC="en_GB.UTF-8">
 &lt;item z-index="12" type="QGraphicsTextItem">
  &lt;position x="609.4562285097448" y="446.2237503309269">
   &lt;transform>1,0,0,0,1,0,0,0,1&lt;/transform>
  &lt;/position>
  &lt;content font-color="74,76,83,255" font-pixel-size="37" font-italic="0" alignment="4" font-underline="0" font-weight="75" font="Sans Serif">Andreea Radulescu, Ioannis Havoutis, 
Darwin G. Caldwell, Claudio Semini&lt;/content>
 &lt;/item>
 &lt;item z-index="12" type="QGraphicsPixmapItem">
  &lt;position x="68.42105263157895" y="728.9473684210527">
   &lt;transform>1,0,0,0,1,0,0,0,1&lt;/transform>
  &lt;/position>
  &lt;content url="/home/aradulescu/kdenlive/icra17aradulescu/logo ADVR IIT.png"/>
 &lt;/item>
 &lt;item z-index="9" type="QGraphicsTextItem">
  &lt;position x="802" y="718.6040729956824">
   &lt;transform>1,0,0,0,1,0,0,0,1&lt;/transform>
  &lt;/position>
  &lt;content font-color="74,76,83,255" font-pixel-size="36" font-italic="0" font-underline="0" font-weight="75" font="Sans Serif">IEEE ICRA 2017&lt;/content>
 &lt;/item>
 &lt;item z-index="8" type="QGraphicsTextItem">
  &lt;position x="1484.21052631579" y="969.4736842105264">
   &lt;transform>1,0,0,0,1,0,0,0,1&lt;/transform>
  &lt;/position>
  &lt;content font-color="74,76,83,255" font-pixel-size="40" font-italic="0" font-underline="0" font-weight="75" font="Sans Serif">www.iit.it/hyq&lt;/content>
 &lt;/item>
 &lt;item z-index="7" type="QGraphicsTextItem">
  &lt;position x="681.5789473684209" y="961.578947368421">
   &lt;transform>1,0,0,0,1,0,0,0,1&lt;/transform>
  &lt;/position>
  &lt;content font-color="74,76,83,255" font-pixel-size="40" font-italic="0" font-underline="0" font-weight="75" font="Sans Serif">Dynamic Legged System Lab&lt;/content>
 &lt;/item>
 &lt;item z-index="5" type="QGraphicsPixmapItem">
  &lt;position x="76.31578947368422" y="-13.15789473684211">
   &lt;transform>1,0,0,0,1,0,0,0,1&lt;/transform>
  &lt;/position>
  &lt;content url="/home/cmastalli/Documents/manuscripts/icra16mastalli/figs/IIT-v4-logo-advr-t2.png"/>
 &lt;/item>
 &lt;item z-index="3" type="QGraphicsTextItem">
  &lt;position x="73.42792911825067" y="227.738957948085">
   &lt;transform>1,0,0,0,1,0,0,0,1&lt;/transform>
  &lt;/position>
  &lt;content font-color="74,76,83,255" font-pixel-size="57" font-italic="0" alignment="4" font-underline="0" font-weight="75" font="Sans Serif">Whole-body Trajectory Optimization for
Non-periodic Dynamic Motions on Quadrupedal Systems&lt;/content>
 &lt;/item>
 &lt;startviewport rect="0,0,1920,1080"/>
 &lt;endviewport rect="0,0,1920,1080"/>
 &lt;background color="244,244,244,255"/>
&lt;/kdenlivetitle>
</property>
  <property name="force_reload">0</property>
 </producer>
 <producer in="0" out="124" id="16">
  <property name="mlt_type">producer</property>
  <property name="length">125</property>
  <property name="eof">pause</property>
  <property name="resource"/>
  <property name="progressive">1</property>
  <property name="mlt_service">kdenlivetitle</property>
  <property name="xmldata">&lt;kdenlivetitle width="1920" duration="50" height="1080" LC_NUMERIC="it_IT.UTF-8">
 &lt;item z-index="0" type="QGraphicsTextItem">
  &lt;position x="737" y="115">
   &lt;transform>1,0,0,0,1,0,0,0,1&lt;/transform>
  &lt;/position>
  &lt;content font-color="0,0,0,255" font-pixel-size="56" font-italic="0" alignment="1" font-underline="0" font-weight="75" font="Sans Serif">Rearing Task &lt;/content>
 &lt;/item>
 &lt;item z-index="0" type="QGraphicsTextItem">
  &lt;position x="313" y="474">
   &lt;transform>1,0,0,0,1,0,0,0,1&lt;/transform>
  &lt;/position>
  &lt;content font-color="74,76,83,255" font-pixel-size="50" font-italic="1" alignment="4" font-underline="0" font-weight="75" font="Sans Serif">Desired torso pitch: 1.0472 rad
Desired CoM (center of mass) height: 90 cm&lt;/content>
 &lt;/item>
 &lt;startviewport rect="0,0,1920,1080"/>
 &lt;endviewport rect="0,0,1920,1080"/>
 &lt;background color="244,244,244,255"/>
&lt;/kdenlivetitle>
</property>
  <property name="force_reload">0</property>
 </producer>
 <producer in="0" out="243" id="42">
  <property name="mlt_type">producer</property>
  <property name="length">244</property>
  <property name="eof">pause</property>
  <property name="resource"/>
  <property name="progressive">1</property>
  <property name="mlt_service">kdenlivetitle</property>
  <property name="xmldata">&lt;kdenlivetitle width="1920" duration="125" height="1080" LC_NUMERIC="it_IT.UTF-8">
 &lt;item z-index="0" type="QGraphicsTextItem">
  &lt;position x="290" y="781">
   &lt;transform>1,0,0,0,1,0,0,0,1&lt;/transform>
  &lt;/position>
  &lt;content font-color="74,76,83,255" font-pixel-size="56" font-italic="0" font-underline="0" font-weight="75" font="Sans Serif">0.4x&lt;/content>
 &lt;/item>
 &lt;startviewport rect="0,0,1920,1080"/>
 &lt;endviewport rect="0,0,1920,1080"/>
 &lt;background color="244,244,244,0"/>
&lt;/kdenlivetitle>
</property>
  <property name="force_reload">0</property>
 </producer>
 <producer in="0" out="124" id="21">
  <property name="mlt_type">producer</property>
  <property name="length">125</property>
  <property name="eof">pause</property>
  <property name="resource"/>
  <property name="progressive">1</property>
  <property name="mlt_service">kdenlivetitle</property>
  <property name="xmldata">&lt;kdenlivetitle width="1920" duration="125" height="1080" LC_NUMERIC="en_GB.UTF-8">
 &lt;item z-index="0" type="QGraphicsTextItem">
  &lt;position x="89" y="474">
   &lt;transform>1,0,0,0,1,0,0,0,1&lt;/transform>
  &lt;/position>
  &lt;content font-color="74,76,83,255" font-pixel-size="50" font-italic="1" alignment="4" font-underline="0" font-weight="75" font="Sans Serif">Desired pose: neutral orientation (roll, pitch, yaw) = (0, 0, 0)
Desired CoM (center of mass) height 56 cm&lt;/content>
 &lt;/item>
 &lt;item z-index="0" type="QGraphicsTextItem">
  &lt;position x="678" y="115">
   &lt;transform>1,0,0,0,1,0,0,0,1&lt;/transform>
  &lt;/position>
  &lt;content font-color="0,0,0,255" font-outline-color="0,0,0,255" font-pixel-size="56" font-italic="0" font-underline="0" font-weight="75" font="Sans Serif" font-outline="0">Posture Recovery&lt;/content>
 &lt;/item>
 &lt;startviewport rect="0,0,1920,1080"/>
 &lt;endviewport rect="0,0,1920,1080"/>
 &lt;background color="244,244,244,255"/>
&lt;/kdenlivetitle>
</property>
  <property name="force_reload">0</property>
 </producer>
 <producer in="0" out="401" id="44">
  <property name="mlt_type">producer</property>
  <property name="length">402</property>
  <property name="eof">pause</property>
  <property name="resource"/>
  <property name="progressive">1</property>
  <property name="mlt_service">kdenlivetitle</property>
  <property name="xmldata">&lt;kdenlivetitle width="1920" duration="125" height="1080" LC_NUMERIC="it_IT.UTF-8">
 &lt;item z-index="0" type="QGraphicsTextItem">
  &lt;position x="290" y="781">
   &lt;transform>1,0,0,0,1,0,0,0,1&lt;/transform>
  &lt;/position>
  &lt;content font-color="74,76,83,255" font-pixel-size="56" font-italic="0" font-underline="0" font-weight="75" font="Sans Serif">0.20x&lt;/content>
 &lt;/item>
 &lt;startviewport rect="0,0,1920,1080"/>
 &lt;endviewport rect="0,0,1920,1080"/>
 &lt;background color="244,244,244,0"/>
&lt;/kdenlivetitle>
</property>
  <property name="force_reload">0</property>
 </producer>
 <producer in="0" out="133" id="18">
  <property name="mlt_type">producer</property>
  <property name="length">134</property>
  <property name="eof">pause</property>
  <property name="resource"/>
  <property name="progressive">1</property>
  <property name="mlt_service">kdenlivetitle</property>
  <property name="xmldata">&lt;kdenlivetitle width="1920" duration="50" height="1080" LC_NUMERIC="en_GB.UTF-8">
 &lt;item z-index="3" type="QGraphicsTextItem">
  &lt;position x="89.47368421052624" y="474.6315789473685">
   &lt;transform>1,0,0,0,1,0,0,0,1&lt;/transform>
  &lt;/position>
  &lt;content font-color="74,76,83,255" font-pixel-size="50" font-italic="1" alignment="4" font-underline="0" font-weight="75" font="Sans Serif">Desired pose: neutral orientation (roll, pitch, yaw) = (0, 0, 0)
Desired CoM (center of mass) height 61 cm&lt;/content>
 &lt;/item>
 &lt;item z-index="1" type="QGraphicsPixmapItem">
  &lt;position x="389" y="205.5555555555555">
   &lt;transform zoom="73">0.73,0,0,0,0.73,0,0,0,1&lt;/transform>
  &lt;/position>
  &lt;content url="/home/cmastalli/Documents/manuscripts/icra16mastalli/figs/hierarchical_trajectory_optimization_diagram.png"/>
 &lt;/item>
 &lt;item z-index="0" type="QGraphicsTextItem">
  &lt;position x="213" y="115.7134502923977">
   &lt;transform>1,0,0,0,1,0,0,0,1&lt;/transform>
  &lt;/position>
  &lt;content font-color="0,0,0,255" font-outline-color="0,0,0,255" font-pixel-size="56" font-italic="0" font-underline="0" font-weight="75" font="Sans Serif" font-outline="0">Posture Recovery (Higher Desired CoM Height)&lt;/content>
 &lt;/item>
 &lt;startviewport rect="0,0,1920,1080"/>
 &lt;endviewport rect="0,0,1920,1080"/>
 &lt;background color="244,244,244,255"/>
&lt;/kdenlivetitle>
</property>
  <property name="force_reload">0</property>
 </producer>
 <producer in="0" out="124" id="32">
  <property name="mlt_type">producer</property>
  <property name="length">125</property>
  <property name="eof">pause</property>
  <property name="resource"/>
  <property name="progressive">1</property>
  <property name="mlt_service">kdenlivetitle</property>
  <property name="xmldata">&lt;kdenlivetitle width="1920" duration="125" height="1080" LC_NUMERIC="it_IT.UTF-8">
 &lt;item z-index="1" type="QGraphicsPixmapItem">
  &lt;position x="850" y="615,7894736842105">
   &lt;transform>1,0,0,0,1,0,0,0,1&lt;/transform>
  &lt;/position>
  &lt;content url="/home/aradulescu/kdenlive/icra17aradulescu/logo ADVR IIT.png"/>
 &lt;/item>
 &lt;item z-index="1" type="QGraphicsTextItem">
  &lt;position x="667" y="247,06432748538">
   &lt;transform>1,0,0,0,1,0,0,0,1&lt;/transform>
  &lt;/position>
  &lt;content font-color="74,76,83,255" font-pixel-size="56" font-italic="0" font-underline="0" font-weight="75" font="Sans Serif">Acknowledgments&lt;/content>
 &lt;/item>
 &lt;item z-index="1" type="QGraphicsPixmapItem">
  &lt;position x="465,7894736842105" y="618,2631578947369">
   &lt;transform>1,0,0,0,1,0,0,0,1&lt;/transform>
  &lt;/position>
  &lt;content url="/home/cmastalli/Documents/manuscripts/icra16mastalli/figs/IIT-v4-logo-advr-t2.png"/>
 &lt;/item>
 &lt;item z-index="0" type="QGraphicsTextItem">
  &lt;position x="117" y="438,3859649122807">
   &lt;transform>1,0,0,0,1,0,0,0,1&lt;/transform>
  &lt;/position>
  &lt;content font-color="74,76,83,255" font-pixel-size="46" font-italic="0" font-underline="0" font-weight="75" font="Sans Serif">This work is supported by the Department of Advanced Robotics
of the Istituto Italiano di Tecnologia (IIT).&lt;/content>
 &lt;/item>
 &lt;startviewport rect="0,0,1920,1080"/>
 &lt;endviewport rect="0,0,1920,1080"/>
 &lt;background color="244,244,244,255"/>
&lt;/kdenlivetitle>
</property>
  <property name="force_reload">0</property>
 </producer>
 <playlist id="playlist5">
  <entry in="0" out="115" producer="1"/>
  <entry in="0" out="124" producer="16"/>
  <entry in="0" out="243" producer="42"/>
  <entry in="0" out="124" producer="21"/>
  <entry in="0" out="401" producer="44"/>
  <entry in="0" out="133" producer="18"/>
  <entry in="0" out="379" producer="44"/>
  <entry in="0" out="124" producer="32"/>
 </playlist>
 <tractor title="Anonymous Submission" global_feed="1" in="0" out="1650" id="maintractor">
  <property name="meta.volume">1</property>
  <track producer="black_track"/>
  <track hide="video" producer="playlist1"/>
  <track hide="video" producer="playlist2"/>
  <track hide="both" producer="playlist3"/>
  <track producer="playlist4"/>
  <track producer="playlist5"/>
  <transition id="transition0">
   <property name="a_track">1</property>
   <property name="b_track">2</property>
   <property name="mlt_type">transition</property>
   <property name="mlt_service">mix</property>
   <property name="always_active">1</property>
   <property name="combine">1</property>
   <property name="internal_added">237</property>
  </transition>
  <transition id="transition1">
   <property name="a_track">1</property>
   <property name="b_track">3</property>
   <property name="mlt_type">transition</property>
   <property name="mlt_service">mix</property>
   <property name="always_active">1</property>
   <property name="combine">1</property>
   <property name="internal_added">237</property>
  </transition>
  <transition id="transition2">
   <property name="a_track">1</property>
   <property name="b_track">4</property>
   <property name="mlt_type">transition</property>
   <property name="mlt_service">mix</property>
   <property name="always_active">1</property>
   <property name="combine">1</property>
   <property name="internal_added">237</property>
  </transition>
  <transition id="transition3">
   <property name="a_track">1</property>
   <property name="b_track">5</property>
   <property name="mlt_type">transition</property>
   <property name="mlt_service">mix</property>
   <property name="always_active">1</property>
   <property name="combine">1</property>
   <property name="internal_added">237</property>
  </transition>
  <transition in="241" out="484" id="transition4">
   <property name="a_track">4</property>
   <property name="b_track">5</property>
   <property name="version">0.1</property>
   <property name="mlt_type">transition</property>
   <property name="mlt_service">frei0r.addition</property>
   <property name="automatic">1</property>
   <property name="force_track">0</property>
  </transition>
  <transition in="610" out="1011" id="transition5">
   <property name="a_track">4</property>
   <property name="b_track">5</property>
   <property name="version">0.1</property>
   <property name="mlt_type">transition</property>
   <property name="mlt_service">frei0r.addition</property>
   <property name="automatic">1</property>
   <property name="force_track">0</property>
  </transition>
  <transition in="1146" out="1525" id="transition6">
   <property name="a_track">4</property>
   <property name="b_track">5</property>
   <property name="version">0.1</property>
   <property name="mlt_type">transition</property>
   <property name="mlt_service">frei0r.addition</property>
   <property name="automatic">1</property>
   <property name="force_track">0</property>
  </transition>
 </tractor>
 <kdenlivedoc profile="hdv_1080_50i" kdenliveversion="0.9.6" version="0.88" projectfolder="/home/aradulescu/kdenlive">
  <customeffects/>
  <documentproperties documentid="1442432801043" renderdestination="" renderrescalewidth="320" proxyextension="ts" generateproxy="0" proxyimageminsize="2000" rendertctype="0" verticalzoom="1" renderprofile="H.264" renderrescaleheight="240" zonein="280" renderrescale="0" renderscanning="0" renderurl="/home/aradulescu/kdenlive/icra17aradulescu/icra17aradulescu_final.mp4" rendertwopass="0" renderplay="0" position="680" proxyminsize="1000" renderstartguide="-1" zoom="5" renderratio="0" rendercategory="H.264" zoneout="284" renderzone="0" renderendguide="-1" renderexportaudio="1" proxyparams="-f mpegts -acodec libmp3lame -ac 2 -ab 128k -ar 48000 -vcodec mpeg2video -g 5 -deinterlace -s 480x270 -vb 400k" enableproxy="0" generateimageproxy="0" renderguide="0" rendertcoverlay="0"/>
  <documentmetadata/>
  <documentnotes>&lt;!DOCTYPE HTML PUBLIC "-//W3C//DTD HTML 4.0//EN" "http://www.w3.org/TR/REC-html40/strict.dtd">
&lt;html>&lt;head>&lt;meta name="qrichtext" content="1" />&lt;style type="text/css">
p, li { white-space: pre-wrap; }
&lt;/style>&lt;/head>&lt;body style=" font-family:'Sans Serif'; font-size:8pt; font-weight:400; font-style:normal;">
&lt;p style="-qt-paragraph-type:empty; margin-top:0px; margin-bottom:0px; margin-left:0px; margin-right:0px; -qt-block-indent:0; text-indent:0px;">&lt;br />&lt;/p>&lt;/body>&lt;/html></documentnotes>
  <profileinfo width="1440" display_aspect_den="9" frame_rate_den="1" description="HDV 1440x1080i 25 fps" height="1080" frame_rate_num="25" display_aspect_num="16" progressive="0" sample_aspect_num="4" sample_aspect_den="3"/>
  <tracksinfo>
   <trackinfo blind="1" mute="0" locked="0" trackname="Audio 2" type="audio"/>
   <trackinfo blind="1" mute="0" locked="0" trackname="Video 4" type="audio"/>
   <trackinfo blind="1" mute="1" locked="0" trackname="Video 3"/>
   <trackinfo blind="0" mute="0" locked="0" trackname="Video 2"/>
   <trackinfo blind="0" mute="0" locked="0" trackname="Video 1"/>
  </tracksinfo>
  <kdenlive_producer duration="100" transparency="1" frame_size="1440x1080" thumbnail="100" in="0" analysisdata="" aspect_ratio="0" length="125" out="99" xmldata="&lt;kdenlivetitle width=&quot;1920&quot; duration=&quot;100&quot; height=&quot;1080&quot; LC_NUMERIC=&quot;en_GB.UTF-8&quot;>&#xa; &lt;item z-index=&quot;12&quot; type=&quot;QGraphicsTextItem&quot;>&#xa;  &lt;position x=&quot;609.4562285097448&quot; y=&quot;446.2237503309269&quot;>&#xa;   &lt;transform>1,0,0,0,1,0,0,0,1&lt;/transform>&#xa;  &lt;/position>&#xa;  &lt;content font-color=&quot;74,76,83,255&quot; font-pixel-size=&quot;37&quot; font-italic=&quot;0&quot; alignment=&quot;4&quot; font-underline=&quot;0&quot; font-weight=&quot;75&quot; font=&quot;Sans Serif&quot;>Andreea Radulescu, Ioannis Havoutis, &#xa;Darwin G. Caldwell, Claudio Semini&lt;/content>&#xa; &lt;/item>&#xa; &lt;item z-index=&quot;12&quot; type=&quot;QGraphicsPixmapItem&quot;>&#xa;  &lt;position x=&quot;68.42105263157895&quot; y=&quot;728.9473684210527&quot;>&#xa;   &lt;transform>1,0,0,0,1,0,0,0,1&lt;/transform>&#xa;  &lt;/position>&#xa;  &lt;content url=&quot;/home/aradulescu/kdenlive/icra17aradulescu/logo ADVR IIT.png&quot;/>&#xa; &lt;/item>&#xa; &lt;item z-index=&quot;9&quot; type=&quot;QGraphicsTextItem&quot;>&#xa;  &lt;position x=&quot;802&quot; y=&quot;718.6040729956824&quot;>&#xa;   &lt;transform>1,0,0,0,1,0,0,0,1&lt;/transform>&#xa;  &lt;/position>&#xa;  &lt;content font-color=&quot;74,76,83,255&quot; font-pixel-size=&quot;36&quot; font-italic=&quot;0&quot; font-underline=&quot;0&quot; font-weight=&quot;75&quot; font=&quot;Sans Serif&quot;>IEEE ICRA 2017&lt;/content>&#xa; &lt;/item>&#xa; &lt;item z-index=&quot;8&quot; type=&quot;QGraphicsTextItem&quot;>&#xa;  &lt;position x=&quot;1484.21052631579&quot; y=&quot;969.4736842105264&quot;>&#xa;   &lt;transform>1,0,0,0,1,0,0,0,1&lt;/transform>&#xa;  &lt;/position>&#xa;  &lt;content font-color=&quot;74,76,83,255&quot; font-pixel-size=&quot;40&quot; font-italic=&quot;0&quot; font-underline=&quot;0&quot; font-weight=&quot;75&quot; font=&quot;Sans Serif&quot;>www.iit.it/hyq&lt;/content>&#xa; &lt;/item>&#xa; &lt;item z-index=&quot;7&quot; type=&quot;QGraphicsTextItem&quot;>&#xa;  &lt;position x=&quot;681.5789473684209&quot; y=&quot;961.578947368421&quot;>&#xa;   &lt;transform>1,0,0,0,1,0,0,0,1&lt;/transform>&#xa;  &lt;/position>&#xa;  &lt;content font-color=&quot;74,76,83,255&quot; font-pixel-size=&quot;40&quot; font-italic=&quot;0&quot; font-underline=&quot;0&quot; font-weight=&quot;75&quot; font=&quot;Sans Serif&quot;>Dynamic Legged System Lab&lt;/content>&#xa; &lt;/item>&#xa; &lt;item z-index=&quot;5&quot; type=&quot;QGraphicsPixmapItem&quot;>&#xa;  &lt;position x=&quot;76.31578947368422&quot; y=&quot;-13.15789473684211&quot;>&#xa;   &lt;transform>1,0,0,0,1,0,0,0,1&lt;/transform>&#xa;  &lt;/position>&#xa;  &lt;content url=&quot;/home/cmastalli/Documents/manuscripts/icra16mastalli/figs/IIT-v4-logo-advr-t2.png&quot;/>&#xa; &lt;/item>&#xa; &lt;item z-index=&quot;3&quot; type=&quot;QGraphicsTextItem&quot;>&#xa;  &lt;position x=&quot;73.42792911825067&quot; y=&quot;227.738957948085&quot;>&#xa;   &lt;transform>1,0,0,0,1,0,0,0,1&lt;/transform>&#xa;  &lt;/position>&#xa;  &lt;content font-color=&quot;74,76,83,255&quot; font-pixel-size=&quot;57&quot; font-italic=&quot;0&quot; alignment=&quot;4&quot; font-underline=&quot;0&quot; font-weight=&quot;75&quot; font=&quot;Sans Serif&quot;>Whole-body Trajectory Optimization for&#xa;Non-periodic Dynamic Motions on Quadrupedal Systems&lt;/content>&#xa; &lt;/item>&#xa; &lt;startviewport rect=&quot;0,0,1920,1080&quot;/>&#xa; &lt;endviewport rect=&quot;0,0,1920,1080&quot;/>&#xa; &lt;background color=&quot;244,244,244,255&quot;/>&#xa;&lt;/kdenlivetitle>&#xa;" type="6" id="1" name="Cover"/>
  <kdenlive_producer duration="50" transparency="1" frame_size="1440x1080" thumbnail="100" in="0" analysisdata="" aspect_ratio="0" length="125" out="49" xmldata="&lt;kdenlivetitle width=&quot;1920&quot; duration=&quot;50&quot; height=&quot;1080&quot; LC_NUMERIC=&quot;it_IT.UTF-8&quot;>&#xa; &lt;item z-index=&quot;0&quot; type=&quot;QGraphicsTextItem&quot;>&#xa;  &lt;position x=&quot;737&quot; y=&quot;115&quot;>&#xa;   &lt;transform>1,0,0,0,1,0,0,0,1&lt;/transform>&#xa;  &lt;/position>&#xa;  &lt;content font-color=&quot;0,0,0,255&quot; font-pixel-size=&quot;56&quot; font-italic=&quot;0&quot; alignment=&quot;1&quot; font-underline=&quot;0&quot; font-weight=&quot;75&quot; font=&quot;Sans Serif&quot;>Rearing Task &lt;/content>&#xa; &lt;/item>&#xa; &lt;item z-index=&quot;0&quot; type=&quot;QGraphicsTextItem&quot;>&#xa;  &lt;position x=&quot;313&quot; y=&quot;474&quot;>&#xa;   &lt;transform>1,0,0,0,1,0,0,0,1&lt;/transform>&#xa;  &lt;/position>&#xa;  &lt;content font-color=&quot;74,76,83,255&quot; font-pixel-size=&quot;50&quot; font-italic=&quot;1&quot; alignment=&quot;4&quot; font-underline=&quot;0&quot; font-weight=&quot;75&quot; font=&quot;Sans Serif&quot;>Desired torso pitch: 1.0472 rad&#xa;Desired CoM (center of mass) height: 90 cm&lt;/content>&#xa; &lt;/item>&#xa; &lt;startviewport rect=&quot;0,0,1920,1080&quot;/>&#xa; &lt;endviewport rect=&quot;0,0,1920,1080&quot;/>&#xa; &lt;background color=&quot;244,244,244,255&quot;/>&#xa;&lt;/kdenlivetitle>&#xa;" type="6" id="16" name="Gap15cm"/>
  <kdenlive_producer duration="50" transparency="1" frame_size="1440x1080" in="0" analysisdata="" aspect_ratio="0" length="125" out="49" xmldata="&lt;kdenlivetitle width=&quot;1920&quot; duration=&quot;50&quot; height=&quot;1080&quot; LC_NUMERIC=&quot;en_GB.UTF-8&quot;>&#xa; &lt;item z-index=&quot;3&quot; type=&quot;QGraphicsTextItem&quot;>&#xa;  &lt;position x=&quot;89.47368421052624&quot; y=&quot;474.6315789473685&quot;>&#xa;   &lt;transform>1,0,0,0,1,0,0,0,1&lt;/transform>&#xa;  &lt;/position>&#xa;  &lt;content font-color=&quot;74,76,83,255&quot; font-pixel-size=&quot;50&quot; font-italic=&quot;1&quot; alignment=&quot;4&quot; font-underline=&quot;0&quot; font-weight=&quot;75&quot; font=&quot;Sans Serif&quot;>Desired pose: neutral orientation (roll, pitch, yaw) = (0, 0, 0)&#xa;Desired CoM (center of mass) height 61 cm&lt;/content>&#xa; &lt;/item>&#xa; &lt;item z-index=&quot;1&quot; type=&quot;QGraphicsPixmapItem&quot;>&#xa;  &lt;position x=&quot;389&quot; y=&quot;205.5555555555555&quot;>&#xa;   &lt;transform zoom=&quot;73&quot;>0.73,0,0,0,0.73,0,0,0,1&lt;/transform>&#xa;  &lt;/position>&#xa;  &lt;content url=&quot;/home/cmastalli/Documents/manuscripts/icra16mastalli/figs/hierarchical_trajectory_optimization_diagram.png&quot;/>&#xa; &lt;/item>&#xa; &lt;item z-index=&quot;0&quot; type=&quot;QGraphicsTextItem&quot;>&#xa;  &lt;position x=&quot;213&quot; y=&quot;115.7134502923977&quot;>&#xa;   &lt;transform>1,0,0,0,1,0,0,0,1&lt;/transform>&#xa;  &lt;/position>&#xa;  &lt;content font-color=&quot;0,0,0,255&quot; font-outline-color=&quot;0,0,0,255&quot; font-pixel-size=&quot;56&quot; font-italic=&quot;0&quot; font-underline=&quot;0&quot; font-weight=&quot;75&quot; font=&quot;Sans Serif&quot; font-outline=&quot;0&quot;>Posture Recovery (Higher Desired CoM Height)&lt;/content>&#xa; &lt;/item>&#xa; &lt;startviewport rect=&quot;0,0,1920,1080&quot;/>&#xa; &lt;endviewport rect=&quot;0,0,1920,1080&quot;/>&#xa; &lt;background color=&quot;244,244,244,255&quot;/>&#xa;&lt;/kdenlivetitle>&#xa;" type="6" id="18" name="Hierarchical optimization"/>
  <kdenlive_producer duration="125" transparency="1" frame_size="1440x1080" in="0" analysisdata="" aspect_ratio="0" length="125" out="124" xmldata="&lt;kdenlivetitle width=&quot;1920&quot; duration=&quot;125&quot; height=&quot;1080&quot; LC_NUMERIC=&quot;en_GB.UTF-8&quot;>&#xa; &lt;item z-index=&quot;0&quot; type=&quot;QGraphicsTextItem&quot;>&#xa;  &lt;position x=&quot;89&quot; y=&quot;474&quot;>&#xa;   &lt;transform>1,0,0,0,1,0,0,0,1&lt;/transform>&#xa;  &lt;/position>&#xa;  &lt;content font-color=&quot;74,76,83,255&quot; font-pixel-size=&quot;50&quot; font-italic=&quot;1&quot; alignment=&quot;4&quot; font-underline=&quot;0&quot; font-weight=&quot;75&quot; font=&quot;Sans Serif&quot;>Desired pose: neutral orientation (roll, pitch, yaw) = (0, 0, 0)&#xa;Desired CoM (center of mass) height 56 cm&lt;/content>&#xa; &lt;/item>&#xa; &lt;item z-index=&quot;0&quot; type=&quot;QGraphicsTextItem&quot;>&#xa;  &lt;position x=&quot;678&quot; y=&quot;115&quot;>&#xa;   &lt;transform>1,0,0,0,1,0,0,0,1&lt;/transform>&#xa;  &lt;/position>&#xa;  &lt;content font-color=&quot;0,0,0,255&quot; font-outline-color=&quot;0,0,0,255&quot; font-pixel-size=&quot;56&quot; font-italic=&quot;0&quot; font-underline=&quot;0&quot; font-weight=&quot;75&quot; font=&quot;Sans Serif&quot; font-outline=&quot;0&quot;>Posture Recovery&lt;/content>&#xa; &lt;/item>&#xa; &lt;startviewport rect=&quot;0,0,1920,1080&quot;/>&#xa; &lt;endviewport rect=&quot;0,0,1920,1080&quot;/>&#xa; &lt;background color=&quot;244,244,244,255&quot;/>&#xa;&lt;/kdenlivetitle>&#xa;" type="6" id="21" name="Motivation"/>
  <kdenlive_producer duration="125" transparency="1" frame_size="1440x1080" thumbnail="100" in="0" analysisdata="" aspect_ratio="0" out="124" xmldata="&lt;kdenlivetitle width=&quot;1920&quot; duration=&quot;125&quot; height=&quot;1080&quot; LC_NUMERIC=&quot;it_IT.UTF-8&quot;>&#xa; &lt;item z-index=&quot;0&quot; type=&quot;QGraphicsPixmapItem&quot;>&#xa;  &lt;position x=&quot;16,15789473684208&quot; y=&quot;841,1052631578949&quot;>&#xa;   &lt;transform zoom=&quot;26&quot;>0.26,0,0,0,0.26,0,0,0,1&lt;/transform>&#xa;  &lt;/position>&#xa;  &lt;content url=&quot;/home/cmastalli/Documents/manuscripts/icra16mastalli/figs/IIT-v4-logo-advr-t1.png&quot;/>&#xa; &lt;/item>&#xa; &lt;startviewport rect=&quot;0,0,1920,1080&quot;/>&#xa; &lt;endviewport rect=&quot;0,0,1920,1080&quot;/>&#xa; &lt;background color=&quot;244,244,244,0&quot;/>&#xa;&lt;/kdenlivetitle>&#xa;" type="6" id="25" name="IIT-ADVR logo"/>
  <kdenlive_producer duration="50" transparency="1" frame_size="1440x1080" thumbnail="100" in="0" analysisdata="" aspect_ratio="0" length="125" out="49" xmldata="&lt;kdenlivetitle width=&quot;1920&quot; duration=&quot;50&quot; height=&quot;1080&quot; LC_NUMERIC=&quot;en_GB.UTF-8&quot;>&#xa; &lt;item z-index=&quot;0&quot; type=&quot;QGraphicsTextItem&quot;>&#xa;  &lt;position x=&quot;678&quot; y=&quot;115&quot;>&#xa;   &lt;transform>1,0,0,0,1,0,0,0,1&lt;/transform>&#xa;  &lt;/position>&#xa;  &lt;content font-color=&quot;0,0,0,255&quot; font-outline-color=&quot;0,0,0,255&quot; font-pixel-size=&quot;56&quot; font-italic=&quot;0&quot; font-underline=&quot;0&quot; font-weight=&quot;75&quot; font=&quot;Sans Serif&quot; font-outline=&quot;0&quot;>Posture Recovery&lt;/content>&#xa; &lt;/item>&#xa; &lt;item z-index=&quot;0&quot; type=&quot;QGraphicsTextItem&quot;>&#xa;  &lt;position x=&quot;89&quot; y=&quot;474&quot;>&#xa;   &lt;transform>1,0,0,0,1,0,0,0,1&lt;/transform>&#xa;  &lt;/position>&#xa;  &lt;content font-color=&quot;74,76,83,255&quot; font-pixel-size=&quot;50&quot; font-italic=&quot;1&quot; alignment=&quot;4&quot; font-underline=&quot;0&quot; font-weight=&quot;75&quot; font=&quot;Sans Serif&quot;>Desired pose: neutral orientation (roll, pitch, yaw) = (0, 0, 0)&#xa;Desired CoM (center of mass) height 61 cm&lt;/content>&#xa; &lt;/item>&#xa; &lt;startviewport rect=&quot;0,0,1920,1080&quot;/>&#xa; &lt;endviewport rect=&quot;0,0,1920,1080&quot;/>&#xa; &lt;background color=&quot;244,244,244,255&quot;/>&#xa;&lt;/kdenlivetitle>&#xa;" type="6" id="31" name="Gap25cm-6cm"/>
  <kdenlive_producer duration="125" transparency="1" frame_size="1440x1080" in="0" analysisdata="" aspect_ratio="0" out="124" xmldata="&lt;kdenlivetitle width=&quot;1920&quot; duration=&quot;125&quot; height=&quot;1080&quot; LC_NUMERIC=&quot;it_IT.UTF-8&quot;>&#xa; &lt;item z-index=&quot;1&quot; type=&quot;QGraphicsPixmapItem&quot;>&#xa;  &lt;position x=&quot;850&quot; y=&quot;615,7894736842105&quot;>&#xa;   &lt;transform>1,0,0,0,1,0,0,0,1&lt;/transform>&#xa;  &lt;/position>&#xa;  &lt;content url=&quot;/home/aradulescu/kdenlive/icra17aradulescu/logo ADVR IIT.png&quot;/>&#xa; &lt;/item>&#xa; &lt;item z-index=&quot;1&quot; type=&quot;QGraphicsTextItem&quot;>&#xa;  &lt;position x=&quot;667&quot; y=&quot;247,06432748538&quot;>&#xa;   &lt;transform>1,0,0,0,1,0,0,0,1&lt;/transform>&#xa;  &lt;/position>&#xa;  &lt;content font-color=&quot;74,76,83,255&quot; font-pixel-size=&quot;56&quot; font-italic=&quot;0&quot; font-underline=&quot;0&quot; font-weight=&quot;75&quot; font=&quot;Sans Serif&quot;>Acknowledgments&lt;/content>&#xa; &lt;/item>&#xa; &lt;item z-index=&quot;1&quot; type=&quot;QGraphicsPixmapItem&quot;>&#xa;  &lt;position x=&quot;465,7894736842105&quot; y=&quot;618,2631578947369&quot;>&#xa;   &lt;transform>1,0,0,0,1,0,0,0,1&lt;/transform>&#xa;  &lt;/position>&#xa;  &lt;content url=&quot;/home/cmastalli/Documents/manuscripts/icra16mastalli/figs/IIT-v4-logo-advr-t2.png&quot;/>&#xa; &lt;/item>&#xa; &lt;item z-index=&quot;0&quot; type=&quot;QGraphicsTextItem&quot;>&#xa;  &lt;position x=&quot;117&quot; y=&quot;438,3859649122807&quot;>&#xa;   &lt;transform>1,0,0,0,1,0,0,0,1&lt;/transform>&#xa;  &lt;/position>&#xa;  &lt;content font-color=&quot;74,76,83,255&quot; font-pixel-size=&quot;46&quot; font-italic=&quot;0&quot; font-underline=&quot;0&quot; font-weight=&quot;75&quot; font=&quot;Sans Serif&quot;>This work is supported by the Department of Advanced Robotics&#xa;of the Istituto Italiano di Tecnologia (IIT).&lt;/content>&#xa; &lt;/item>&#xa; &lt;startviewport rect=&quot;0,0,1920,1080&quot;/>&#xa; &lt;endviewport rect=&quot;0,0,1920,1080&quot;/>&#xa; &lt;background color=&quot;244,244,244,255&quot;/>&#xa;&lt;/kdenlivetitle>&#xa;" type="6" id="32" name="Acknowledgments"/>
  <kdenlive_producer audio_max="0" id="39" pix_fmt="yuv420p" default_video="0" fps="30" analysisdata="" name="hyq2max_icra_traj1_05-2016-09-09_16.16.54.mkv" videocodecid="h264" zone_out="754" colorspace="709" videocodec="H.264 / AVC / MPEG-4 AVC / MPEG-4 part 10" resource="/home/aradulescu/ownCloud/Videos/Videos ICRA /hyq2max_icra_traj1_05-2016-09-09_16.16.54.mkv" default_audio="1" audiocodec="PCM signed 16-bit little-endian" duration="1187" file_hash="fd15e3e68b1be08b1ece54acc383af17" aspect_ratio="1" channels="2" frequency="44100" video_max="0" progressive="1" type="3" zone_in="371" frame_size="1854x810" file_size="74618053">
   <metaproperty tool="" name="meta.attr.ENCODER">Lavf54.20.4</metaproperty>
  </kdenlive_producer>
  <kdenlive_producer audio_max="0" id="40" pix_fmt="yuv420p" default_video="0" fps="30" analysisdata="" name="hyq2max_icra_traj1_06-2016-09-09_17.12.41.mkv" videocodecid="h264" zone_out="691" colorspace="709" videocodec="H.264 / AVC / MPEG-4 AVC / MPEG-4 part 10" resource="/home/aradulescu/ownCloud/Videos/Videos ICRA /hyq2max_icra_traj1_06-2016-09-09_17.12.41.mkv" default_audio="1" audiocodec="PCM signed 16-bit little-endian" duration="935" file_hash="c13f091195984cc4c7bab2c265e7b194" aspect_ratio="1" channels="2" frequency="44100" video_max="0" progressive="1" type="3" zone_in="686" frame_size="1854x810" file_size="57555000">
   <metaproperty tool="" name="meta.attr.ENCODER">Lavf54.20.4</metaproperty>
  </kdenlive_producer>
  <kdenlive_producer duration="125" transparency="1" frame_size="1440x1080" thumbnail="100" in="0" analysisdata="" aspect_ratio="0" out="124" xmldata="&lt;kdenlivetitle width=&quot;1920&quot; duration=&quot;125&quot; height=&quot;1080&quot; LC_NUMERIC=&quot;it_IT.UTF-8&quot;>&#xa; &lt;item z-index=&quot;0&quot; type=&quot;QGraphicsTextItem&quot;>&#xa;  &lt;position x=&quot;290&quot; y=&quot;781&quot;>&#xa;   &lt;transform>1,0,0,0,1,0,0,0,1&lt;/transform>&#xa;  &lt;/position>&#xa;  &lt;content font-color=&quot;74,76,83,255&quot; font-pixel-size=&quot;56&quot; font-italic=&quot;0&quot; font-underline=&quot;0&quot; font-weight=&quot;75&quot; font=&quot;Sans Serif&quot;>0.4x&lt;/content>&#xa; &lt;/item>&#xa; &lt;startviewport rect=&quot;0,0,1920,1080&quot;/>&#xa; &lt;endviewport rect=&quot;0,0,1920,1080&quot;/>&#xa; &lt;background color=&quot;244,244,244,0&quot;/>&#xa;&lt;/kdenlivetitle>&#xa;" type="6" id="42" name="Title clip"/>
  <kdenlive_producer duration="125" transparency="1" frame_size="1440x1080" thumbnail="100" in="0" analysisdata="" aspect_ratio="0" out="124" xmldata="&lt;kdenlivetitle width=&quot;1920&quot; duration=&quot;125&quot; height=&quot;1080&quot; LC_NUMERIC=&quot;it_IT.UTF-8&quot;>&#xa; &lt;item z-index=&quot;0&quot; type=&quot;QGraphicsTextItem&quot;>&#xa;  &lt;position x=&quot;290&quot; y=&quot;781&quot;>&#xa;   &lt;transform>1,0,0,0,1,0,0,0,1&lt;/transform>&#xa;  &lt;/position>&#xa;  &lt;content font-color=&quot;74,76,83,255&quot; font-pixel-size=&quot;56&quot; font-italic=&quot;0&quot; font-underline=&quot;0&quot; font-weight=&quot;75&quot; font=&quot;Sans Serif&quot;>0.23x&lt;/content>&#xa; &lt;/item>&#xa; &lt;startviewport rect=&quot;0,0,1920,1080&quot;/>&#xa; &lt;endviewport rect=&quot;0,0,1920,1080&quot;/>&#xa; &lt;background color=&quot;244,244,244,0&quot;/>&#xa;&lt;/kdenlivetitle>&#xa;" type="6" id="43" name="Title clip"/>
  <kdenlive_producer duration="125" transparency="1" frame_size="1440x1080" thumbnail="100" in="0" analysisdata="" aspect_ratio="0" out="124" xmldata="&lt;kdenlivetitle width=&quot;1920&quot; duration=&quot;125&quot; height=&quot;1080&quot; LC_NUMERIC=&quot;it_IT.UTF-8&quot;>&#xa; &lt;item z-index=&quot;0&quot; type=&quot;QGraphicsTextItem&quot;>&#xa;  &lt;position x=&quot;290&quot; y=&quot;781&quot;>&#xa;   &lt;transform>1,0,0,0,1,0,0,0,1&lt;/transform>&#xa;  &lt;/position>&#xa;  &lt;content font-color=&quot;74,76,83,255&quot; font-pixel-size=&quot;56&quot; font-italic=&quot;0&quot; font-underline=&quot;0&quot; font-weight=&quot;75&quot; font=&quot;Sans Serif&quot;>0.20x&lt;/content>&#xa; &lt;/item>&#xa; &lt;startviewport rect=&quot;0,0,1920,1080&quot;/>&#xa; &lt;endviewport rect=&quot;0,0,1920,1080&quot;/>&#xa; &lt;background color=&quot;244,244,244,0&quot;/>&#xa;&lt;/kdenlivetitle>&#xa;" type="6" id="44" name="Title clip"/>
  <kdenlive_producer audio_max="0" id="45" pix_fmt="yuv420p" default_video="0" fps="30" analysisdata="" name="hyq2max_icra_rear_4_01-2016-09-20_09.04.44.mkv" videocodecid="h264" zone_out="307" colorspace="709" videocodec="H.264 / AVC / MPEG-4 AVC / MPEG-4 part 10" resource="/home/aradulescu/kdenlive/icra17aradulescu/hyq2max_icra_rear_4_01-2016-09-20_09.04.44.mkv" default_audio="1" audiocodec="PCM signed 16-bit little-endian" duration="546" file_hash="9bb67f3b4a700232565861efe05abe2c" aspect_ratio="1" channels="2" frequency="44100" video_max="0" progressive="1" type="3" zone_in="306" frame_size="1854x810" file_size="31895927">
   <metaproperty tool="" name="meta.attr.ENCODER">Lavf54.20.4</metaproperty>
  </kdenlive_producer>
  <markers/>
  <groups/>
 </kdenlivedoc>
</mlt>
